<svg preserveAspectRatio="none" width="100%" height="100%" overflow="visible" style="display: block;" viewBox="0 0 24 24.75" fill="none" xmlns="http://www.w3.org/2000/svg">
<g id="App Icon" filter="url(#filter0_d_0_133)">
<path id="bg" d="M1.5 8.96667C1.5 6.35309 1.5 5.0463 2.00864 4.04804C2.45605 3.16995 3.16995 2.45605 4.04804 2.00864C5.0463 1.5 6.35309 1.5 8.96667 1.5H15.0333C17.6469 1.5 18.9537 1.5 19.952 2.00864C20.83 2.45605 21.544 3.16995 21.9914 4.04804C22.5 5.0463 22.5 6.35309 22.5 8.96667V15.0333C22.5 17.6469 22.5 18.9537 21.9914 19.952C21.544 20.83 20.83 21.544 19.952 21.9914C18.9537 22.5 17.6469 22.5 15.0333 22.5H8.96667C6.35309 22.5 5.0463 22.5 4.04804 21.9914C3.16995 21.544 2.45605 20.83 2.00864 19.952C1.5 18.9537 1.5 17.6469 1.5 15.0333V8.96667Z" fill="var(--fill-0, white)"/>
<g id="g-calendar">
<g id="Vector">
</g>
<path id="Vector_2" d="M18.3694 4.5H15.9309V8.03344H19.499V5.49634C19.5 5.49634 19.3227 4.59636 18.3694 4.5Z" fill="var(--fill-0, #1967D2)"/>
<path id="Vector_3" d="M15.9319 19.4836V19.4922V19.4999L19.5 15.9665H19.468L15.9319 19.4836Z" fill="var(--fill-0, #1967D2)"/>
<path id="Vector_4" d="M19.4997 15.9664V15.9347L19.468 15.9664H19.4997Z" fill="var(--fill-0, #FBBC05)"/>
<path id="Vector_5" d="M19.5 8.0335H15.9319V15.9348H19.5V8.0335Z" fill="var(--fill-0, #FBBC05)"/>
<path id="Vector_6" d="M19.468 15.9665H15.9319V19.4836L19.468 15.9665Z" fill="var(--fill-0, #EA4335)"/>
<path id="Vector_7" d="M15.9319 15.9664H19.468L19.5 15.9347H15.9319V15.9664Z" fill="var(--fill-0, #EA4335)"/>
<path id="Vector_8" d="M15.9232 19.4923H15.9318V19.4837L15.9232 19.4923Z" fill="var(--fill-0, #34A853)"/>
<path id="Vector_9" d="M7.9877 15.9347V19.4922H15.9232L15.9319 15.9347H7.9877Z" fill="var(--fill-0, #34A853)"/>
<path id="Vector_10" d="M15.9318 15.9665V15.9347L15.9232 19.4922L15.9318 19.4836V15.9665Z" fill="var(--fill-0, #34A853)"/>
<path id="Vector_11" d="M4.5 15.9347V18.4082C4.53197 19.2109 5.40002 19.4922 5.40002 19.4922H7.9877V15.9347H4.5Z" fill="var(--fill-0, #188038)"/>
<path id="Vector_12" d="M7.9877 8.03352H15.9319V4.50008H5.50078C5.50078 4.50008 4.56394 4.59644 4.5 5.59182V15.9349H7.9877V8.03352Z" fill="var(--fill-0, #4285F4)"/>
<g id="31">
<path d="M10.5867 14.3354C10.405 14.3354 10.2297 14.3118 10.0609 14.2644C9.89649 14.2171 9.74503 14.146 9.60656 14.0514C9.46809 13.9524 9.34476 13.8297 9.23657 13.6834C9.13272 13.537 9.05266 13.367 8.99641 13.1734L9.7948 12.857C9.85105 13.0722 9.94625 13.2358 10.0804 13.3477C10.2145 13.4553 10.3833 13.5091 10.5867 13.5091C10.6776 13.5091 10.7641 13.4961 10.8463 13.4703C10.9286 13.4402 11 13.3993 11.0605 13.3477C11.1211 13.296 11.1687 13.2358 11.2033 13.1669C11.2423 13.0937 11.2618 13.012 11.2618 12.9216C11.2618 12.7322 11.1904 12.5837 11.0476 12.4761C10.9091 12.3685 10.7165 12.3147 10.4699 12.3147H10.0869V11.5464H10.4374C10.524 11.5464 10.6083 11.5357 10.6906 11.5142C10.7728 11.4926 10.8442 11.4604 10.9048 11.4173C10.9697 11.37 11.0194 11.3119 11.0541 11.243C11.093 11.1698 11.1125 11.0859 11.1125 10.9912C11.1125 10.8449 11.0605 10.7265 10.9567 10.6362C10.8528 10.5415 10.7122 10.4941 10.5348 10.4941C10.3444 10.4941 10.1972 10.5458 10.0934 10.6491C9.99386 10.7481 9.92462 10.86 9.88567 10.9848L9.10675 10.6684C9.1457 10.5608 9.20412 10.4511 9.28201 10.3392C9.3599 10.223 9.45727 10.1197 9.5741 10.0293C9.69527 9.93461 9.83591 9.85929 9.99602 9.80334C10.1561 9.74308 10.34 9.71295 10.5478 9.71295C10.7598 9.71295 10.9524 9.74308 11.1255 9.80334C11.3029 9.86359 11.4543 9.94752 11.5798 10.0551C11.7053 10.1584 11.8027 10.2832 11.8719 10.4296C11.9412 10.5716 11.9758 10.7265 11.9758 10.8944C11.9758 11.0235 11.9585 11.1397 11.9238 11.243C11.8936 11.3463 11.8524 11.4388 11.8005 11.5206C11.7486 11.6024 11.688 11.6734 11.6188 11.7337C11.5539 11.7896 11.4868 11.8348 11.4175 11.8692V11.9209C11.6253 12.0027 11.7962 12.1339 11.9303 12.3147C12.0688 12.4955 12.138 12.7236 12.138 12.999C12.138 13.1927 12.1013 13.3713 12.0277 13.5349C11.9541 13.6941 11.8481 13.834 11.7096 13.9545C11.5755 14.075 11.4132 14.1676 11.2228 14.2321C11.0324 14.301 10.8204 14.3354 10.5867 14.3354Z" fill="var(--fill-0, #4285F4)"/>
<path d="M13.6881 14.2321V10.8105L12.9027 11.1397L12.5911 10.4231L13.8958 9.81625H14.5384V14.2321H13.6881Z" fill="var(--fill-0, #4285F4)"/>
</g>
</g>
</g>
<defs>
<filter id="filter0_d_0_133" x="-1.5" y="-0.75" width="27" height="27" filterUnits="userSpaceOnUse" color-interpolation-filters="sRGB">
<feFlood flood-opacity="0" result="BackgroundImageFix"/>
<feColorMatrix in="SourceAlpha" type="matrix" values="0 0 0 0 0 0 0 0 0 0 0 0 0 0 0 0 0 0 127 0" result="hardAlpha"/>
<feOffset dy="0.75"/>
<feGaussianBlur stdDeviation="0.75"/>
<feComposite in2="hardAlpha" operator="out"/>
<feColorMatrix type="matrix" values="0 0 0 0 0.0627451 0 0 0 0 0.0941176 0 0 0 0 0.156863 0 0 0 0.05 0"/>
<feBlend mode="normal" in2="BackgroundImageFix" result="effect1_dropShadow_0_133"/>
<feBlend mode="normal" in="SourceGraphic" in2="effect1_dropShadow_0_133" result="shape"/>
</filter>
</defs>
</svg>
