<svg preserveAspectRatio="none" width="100%" height="100%" overflow="visible" style="display: block;" viewBox="0 0 316 308" fill="none" xmlns="http://www.w3.org/2000/svg">
<g id="Icons" opacity="0.15">
<path id="Shape" d="M312 158C312 117.157 295.775 77.9862 266.894 49.1056C238.014 20.225 198.843 4 158 4C117.157 4 77.9862 20.2249 49.1056 49.1055C20.225 77.9861 4.00001 117.157 4 158" stroke="url(#paint0_linear_0_4)" stroke-width="8"/>
<path id="Shape_2" d="M271.254 156.209C271.254 141.277 268.313 126.492 262.599 112.697C256.885 98.9024 248.509 86.368 237.951 75.8099C227.393 65.2517 214.859 56.8765 201.064 51.1625C187.269 45.4484 172.484 42.5075 157.552 42.5075C142.621 42.5075 127.835 45.4484 114.041 51.1625C100.246 56.8765 87.7113 65.2517 77.1531 75.8099C66.595 86.368 58.2198 98.9024 52.5058 112.697C46.7917 126.492 43.8507 141.277 43.8507 156.209" stroke="url(#paint1_linear_0_4)" stroke-width="8"/>
</g>
<defs>
<linearGradient id="paint0_linear_0_4" x1="158" y1="8" x2="158" y2="308" gradientUnits="userSpaceOnUse">
<stop stop-color="#C4EDD6"/>
<stop offset="0.201923" stop-color="white"/>
</linearGradient>
<linearGradient id="paint1_linear_0_4" x1="157.552" y1="46.5075" x2="157.552" y2="265.91" gradientUnits="userSpaceOnUse">
<stop stop-color="#C4EDD6"/>
<stop offset="0.201923" stop-color="white"/>
</linearGradient>
</defs>
</svg>
