<svg preserveAspectRatio="none" width="100%" height="100%" overflow="visible" style="display: block;" viewBox="0 0 72.7543 71.8687" fill="none" xmlns="http://www.w3.org/2000/svg">
<g id="Star background" filter="url(#filter0_ddi_0_15)">
<path d="M34.4734 27.3711C35.0836 25.9042 35.3887 25.1707 35.8269 24.9606C36.1748 24.7937 36.5796 24.7937 36.9275 24.9606C37.3657 25.1707 37.6707 25.9042 38.2809 27.3711L39.2599 29.7251C39.4393 30.1562 39.5289 30.3718 39.6753 30.534C39.7941 30.6657 39.9392 30.7711 40.1012 30.8435C40.3007 30.9325 40.5334 30.9512 40.9989 30.9885L43.5402 31.1922C45.1239 31.3192 45.9157 31.3827 46.251 31.7345C46.5171 32.0138 46.6422 32.3988 46.5911 32.7812C46.5267 33.2629 45.9233 33.7797 44.7167 34.8133L42.7805 36.4719C42.4259 36.7756 42.2486 36.9275 42.1396 37.1168C42.051 37.2706 41.9956 37.4412 41.9769 37.6176C41.9538 37.8348 42.008 38.0619 42.1163 38.5161L42.7079 40.996C43.0765 42.5414 43.2608 43.3141 43.0298 43.7417C42.8464 44.0811 42.5189 44.3191 42.1394 44.3886C41.6614 44.4762 40.9835 44.0621 39.6276 43.2339L37.4519 41.905C37.0534 41.6616 36.8542 41.5399 36.6404 41.4948C36.4668 41.458 36.2875 41.458 36.1139 41.4948C35.9002 41.5399 35.7009 41.6616 35.3024 41.905L33.1267 43.2339C31.7709 44.0621 31.0929 44.4762 30.6149 44.3886C30.2354 44.3191 29.9079 44.0811 29.7245 43.7417C29.4935 43.3141 29.6778 42.5414 30.0465 40.996L30.638 38.5161C30.7463 38.0619 30.8005 37.8348 30.7774 37.6176C30.7587 37.4412 30.7033 37.2706 30.6147 37.1168C30.5057 36.9275 30.3284 36.7756 29.9738 36.4719L28.0376 34.8133C26.831 33.7797 26.2277 33.2629 26.1632 32.7812C26.1121 32.3988 26.2372 32.0138 26.5033 31.7345C26.8386 31.3827 27.6304 31.3192 29.2142 31.1922L31.7554 30.9885C32.2209 30.9512 32.4536 30.9325 32.6531 30.8435C32.8151 30.7711 32.9602 30.6657 33.0791 30.534C33.2254 30.3718 33.3151 30.1562 33.4944 29.7251L34.4734 27.3711Z" fill="url(#paint0_linear_0_15)"/>
<path d="M35.9643 25.2472C36.2251 25.1221 36.5287 25.1223 36.7895 25.2472C36.9086 25.3043 37.0545 25.4565 37.2583 25.8429C37.4572 26.2199 37.6793 26.7539 37.9868 27.4933L38.9663 29.8468C39.1366 30.2561 39.2473 30.5348 39.4389 30.7472C39.5875 30.9117 39.7688 31.0435 39.9712 31.1339C40.2323 31.2505 40.5314 31.2704 40.9731 31.3058L43.5151 31.5099C44.313 31.5738 44.8892 31.6199 45.3091 31.6925C45.7395 31.7669 45.9299 31.8586 46.021 31.9542C46.2204 32.1637 46.3142 32.4527 46.2759 32.7394C46.2582 32.8702 46.1582 33.0553 45.854 33.3683C45.5569 33.6739 45.1175 34.0504 44.5093 34.5714L42.5737 36.2306C42.237 36.519 42.0065 36.7102 41.8638 36.9581C41.7531 37.1503 41.684 37.3636 41.6606 37.5841C41.6304 37.8685 41.7043 38.1587 41.8071 38.5899L42.3979 41.0694C42.5837 41.8483 42.7181 42.4112 42.7788 42.8331C42.841 43.2655 42.8123 43.4747 42.7495 43.5909C42.612 43.8451 42.3667 44.0231 42.0825 44.0753C41.9526 44.0991 41.745 44.062 41.353 43.8692C40.9705 43.6811 40.4769 43.3795 39.7934 42.962L37.6177 41.6339C37.2394 41.4029 36.9863 41.2429 36.7065 41.1837C36.4896 41.1378 36.2653 41.1379 36.0483 41.1837C35.7684 41.2429 35.5146 41.4028 35.1362 41.6339L32.9604 42.962C32.277 43.3794 31.7833 43.6811 31.4009 43.8692C31.0091 44.0619 30.8022 44.0991 30.6723 44.0753C30.3878 44.0232 30.142 43.8453 30.0044 43.5909C29.9416 43.4747 29.9129 43.2655 29.9751 42.8331C30.0358 42.4112 30.1701 41.8484 30.3559 41.0694L30.9477 38.5899C31.0506 38.1588 31.1244 37.8685 31.0942 37.5841C31.0708 37.3635 31.0008 37.1503 30.8901 36.9581C30.7474 36.7103 30.5176 36.5188 30.1811 36.2306L28.2446 34.5714C27.6364 34.0504 27.197 33.6739 26.8999 33.3683C26.5959 33.0555 26.4966 32.8702 26.479 32.7394C26.4406 32.4525 26.5343 32.1637 26.7339 31.9542C26.825 31.8586 27.0143 31.7669 27.4448 31.6925C27.8648 31.6198 28.4414 31.5739 29.2397 31.5099L31.7807 31.3058C32.2227 31.2703 32.5215 31.2505 32.7827 31.1339C32.9851 31.0435 33.1664 30.9117 33.3149 30.7472C33.5066 30.5348 33.6183 30.2561 33.7886 29.8468L34.7671 27.4933C35.0746 26.7538 35.2967 26.2199 35.4956 25.8429C35.6994 25.4565 35.8452 25.3043 35.9643 25.2472Z" stroke="var(--stroke-0, #7BA08C)" stroke-width="0.636364"/>
</g>
<defs>
<filter id="filter0_ddi_0_15" x="4.76837e-07" y="-1.07288e-06" width="72.7543" height="71.8687" filterUnits="userSpaceOnUse" color-interpolation-filters="sRGB">
<feFlood flood-opacity="0" result="BackgroundImageFix"/>
<feColorMatrix in="SourceAlpha" type="matrix" values="0 0 0 0 0 0 0 0 0 0 0 0 0 0 0 0 0 0 127 0" result="hardAlpha"/>
<feOffset dy="1.31654"/>
<feGaussianBlur stdDeviation="10.9826"/>
<feComposite in2="hardAlpha" operator="out"/>
<feColorMatrix type="matrix" values="0 0 0 0 0.827451 0 0 0 0 0.87451 0 0 0 0 0.913725 0 0 0 0.39 0"/>
<feBlend mode="normal" in2="BackgroundImageFix" result="effect1_dropShadow_0_15"/>
<feColorMatrix in="SourceAlpha" type="matrix" values="0 0 0 0 0 0 0 0 0 0 0 0 0 0 0 0 0 0 127 0" result="hardAlpha"/>
<feOffset dy="1.31654"/>
<feGaussianBlur stdDeviation="13.076"/>
<feComposite in2="hardAlpha" operator="out"/>
<feColorMatrix type="matrix" values="0 0 0 0 1 0 0 0 0 1 0 0 0 0 1 0 0 0 0.25 0"/>
<feBlend mode="normal" in2="effect1_dropShadow_0_15" result="effect2_dropShadow_0_15"/>
<feBlend mode="normal" in="SourceGraphic" in2="effect2_dropShadow_0_15" result="shape"/>
<feColorMatrix in="SourceAlpha" type="matrix" values="0 0 0 0 0 0 0 0 0 0 0 0 0 0 0 0 0 0 127 0" result="hardAlpha"/>
<feOffset/>
<feGaussianBlur stdDeviation="4.81532"/>
<feComposite in2="hardAlpha" operator="arithmetic" k2="-1" k3="1"/>
<feColorMatrix type="matrix" values="0 0 0 0 1 0 0 0 0 1 0 0 0 0 1 0 0 0 1 0"/>
<feBlend mode="normal" in2="shape" result="effect3_innerShadow_0_15"/>
</filter>
<linearGradient id="paint0_linear_0_15" x1="37.1246" y1="12.9384" x2="39.3235" y2="58.0295" gradientUnits="userSpaceOnUse">
<stop stop-color="#B1E7C9"/>
<stop offset="0.18" stop-color="#EAEFF3"/>
<stop offset="0.315" stop-color="#D8F3E4"/>
<stop offset="0.491919" stop-color="white"/>
<stop offset="0.615" stop-color="#C4EDD6"/>
<stop offset="0.785" stop-color="#D8F3E4"/>
<stop offset="0.955" stop-color="#D8F3E4"/>
</linearGradient>
</defs>
</svg>
