<svg preserveAspectRatio="none" width="100%" height="100%" overflow="visible" style="display: block;" viewBox="0 0 11.4428 13.7313" fill="none" xmlns="http://www.w3.org/2000/svg">
<g id="Logomark">
<path id="Vector" fill-rule="evenodd" clip-rule="evenodd" d="M3.92333 1.14428C3.27784 1.14428 2.65882 1.40069 2.2024 1.85712L0 4.0595V5.06761C0 5.77983 0.305934 6.4206 0.79356 6.86567C0.305934 7.31074 0 7.95151 0 8.66373V9.67184L2.2024 11.8742C2.65882 12.3307 3.27784 12.5871 3.92333 12.5871C4.63556 12.5871 5.27633 12.2811 5.72139 11.7935C6.16646 12.2811 6.80723 12.5871 7.51946 12.5871C8.16494 12.5871 8.78397 12.3307 9.24039 11.8742L11.4428 9.67184V8.66373C11.4428 7.95151 11.1369 7.31074 10.6492 6.86567C11.1369 6.4206 11.4428 5.77983 11.4428 5.06761V4.0595L9.24039 1.85712C8.78397 1.40069 8.16494 1.14428 7.51946 1.14428C6.80723 1.14428 6.16646 1.45021 5.72139 1.93784C5.27633 1.45021 4.63556 1.14428 3.92333 1.14428ZM7.36881 6.86567C7.34138 6.84064 7.31446 6.81492 7.28808 6.78855L5.72139 5.22186L4.1547 6.78855C4.12833 6.81492 4.10141 6.84064 4.07398 6.86567C4.10141 6.8907 4.12833 6.91642 4.1547 6.94279L5.72139 8.50948L7.28808 6.94279C7.31446 6.91642 7.34138 6.8907 7.36881 6.86567ZM6.3571 9.67184V10.1533C6.3571 10.7952 6.87752 11.3157 7.51946 11.3157C7.82773 11.3157 8.12338 11.1932 8.34136 10.9752L10.1714 9.14519V8.66373C10.1714 8.02179 9.65096 7.50137 9.00902 7.50137C8.70075 7.50137 8.4051 7.62384 8.18711 7.84183L6.3571 9.67184ZM5.08569 9.67184L3.25567 7.84183C3.03769 7.62384 2.74205 7.50137 2.43377 7.50137C1.79182 7.50137 1.27142 8.02179 1.27142 8.66373V9.14519L3.10142 10.9752C3.31941 11.1932 3.61506 11.3157 3.92333 11.3157C4.56527 11.3157 5.08569 10.7952 5.08569 10.1533V9.67184ZM5.08569 3.57805V4.0595L3.25567 5.88951C3.03769 6.1075 2.74205 6.22997 2.43377 6.22997C1.79182 6.22997 1.27142 5.70955 1.27142 5.06761V4.58615L3.10142 2.75614C3.31941 2.53816 3.61506 2.4157 3.92333 2.4157C4.56527 2.4157 5.08569 2.9361 5.08569 3.57805ZM8.18711 5.88951L6.3571 4.0595V3.57805C6.3571 2.9361 6.87752 2.4157 7.51946 2.4157C7.82773 2.4157 8.12338 2.53816 8.34136 2.75614L10.1714 4.58615V5.06761C10.1714 5.70955 9.65096 6.22997 9.00902 6.22997C8.70075 6.22997 8.4051 6.1075 8.18711 5.88951Z" fill="var(--fill-0, #AAD4BD)"/>
</g>
</svg>
