<svg preserveAspectRatio="none" width="100%" height="100%" overflow="visible" style="display: block;" viewBox="0 0 26.6667 32" fill="none" xmlns="http://www.w3.org/2000/svg">
<g id="Logomark">
<path id="Vector" fill-rule="evenodd" clip-rule="evenodd" d="M9.14307 2.66667C7.6388 2.66667 6.1962 3.26422 5.13254 4.32789L0 9.46039V11.8097C0 13.4695 0.71296 14.9628 1.84934 16C0.71296 17.0372 0 18.5305 0 20.1903V22.5396L5.13254 27.6721C6.1962 28.7358 7.6388 29.3333 9.14307 29.3333C10.8029 29.3333 12.2961 28.6204 13.3333 27.484C14.3705 28.6204 15.8638 29.3333 17.5236 29.3333C19.0279 29.3333 20.4705 28.7358 21.5341 27.6721L26.6667 22.5396V20.1903C26.6667 18.5305 25.9537 17.0372 24.8173 16C25.9537 14.9628 26.6667 13.4695 26.6667 11.8097V9.46039L21.5341 4.32789C20.4705 3.26422 19.0279 2.66667 17.5236 2.66667C15.8638 2.66667 14.3705 3.37962 13.3333 4.51601C12.2961 3.37962 10.8029 2.66667 9.14307 2.66667ZM17.1725 16C17.1086 15.9417 17.0459 15.8817 16.9844 15.8203L13.3333 12.1692L9.68227 15.8203C9.6208 15.8817 9.55807 15.9417 9.49413 16C9.55807 16.0583 9.6208 16.1183 9.68227 16.1797L13.3333 19.8308L16.9844 16.1797C17.0459 16.1183 17.1086 16.0583 17.1725 16ZM14.8148 22.5396V23.6616C14.8148 25.1576 16.0276 26.3704 17.5236 26.3704C18.242 26.3704 18.931 26.085 19.439 25.577L23.7037 21.3123V20.1903C23.7037 18.6943 22.4909 17.4815 20.9949 17.4815C20.2765 17.4815 19.5875 17.7669 19.0795 18.2749L14.8148 22.5396ZM11.8519 22.5396L7.58713 18.2749C7.07913 17.7669 6.39016 17.4815 5.67175 17.4815C4.17573 17.4815 2.96296 18.6943 2.96296 20.1903V21.3123L7.22767 25.577C7.73567 26.085 8.42467 26.3704 9.14307 26.3704C10.6391 26.3704 11.8519 25.1576 11.8519 23.6616V22.5396ZM11.8519 8.33841V9.46039L7.58713 13.7251C7.07913 14.2331 6.39016 14.5185 5.67175 14.5185C4.17573 14.5185 2.96296 13.3057 2.96296 11.8097V10.6877L7.22767 6.42301C7.73567 5.91502 8.42467 5.62963 9.14307 5.62963C10.6391 5.62963 11.8519 6.84239 11.8519 8.33841ZM19.0795 13.7251L14.8148 9.46039V8.33841C14.8148 6.84239 16.0276 5.62963 17.5236 5.62963C18.242 5.62963 18.931 5.91502 19.439 6.42301L23.7037 10.6877V11.8097C23.7037 13.3057 22.4909 14.5185 20.9949 14.5185C20.2765 14.5185 19.5875 14.2331 19.0795 13.7251Z" fill="var(--fill-0, #101828)"/>
</g>
</svg>
